<svg xmlns="http://www.w3.org/2000/svg"  viewBox="0 0 100 100" width="100px" height="100px"><path fill="#c7ede6" d="M87.215,56.71C88.35,54.555,89,52.105,89,49.5c0-6.621-4.159-12.257-10.001-14.478 C78.999,35.015,79,35.008,79,35c0-11.598-9.402-21-21-21c-9.784,0-17.981,6.701-20.313,15.757C36.211,29.272,34.638,29,33,29 c-7.692,0-14.023,5.793-14.89,13.252C12.906,43.353,9,47.969,9,53.5C9,59.851,14.149,65,20.5,65c0.177,0,0.352-0.012,0.526-0.022 C21.022,65.153,21,65.324,21,65.5C21,76.822,30.178,86,41.5,86c6.437,0,12.175-2.972,15.934-7.614C59.612,80.611,62.64,82,66,82 c4.65,0,8.674-2.65,10.666-6.518C77.718,75.817,78.837,76,80,76c6.075,0,11-4.925,11-11C91,61.689,89.53,58.727,87.215,56.71z"/><path fill="#fdfcef" d="M34.875,39.5c0,0,3.64,0,6.125,0s4.5-2.015,4.5-4.5c0-2.333-1.782-4.229-4.055-4.455 C41.467,30.364,41.5,30.187,41.5,30c0-2.485-2.015-4.5-4.5-4.5c-1.438,0-2.703,0.686-3.527,1.736 C33.333,24.6,31.171,22.5,28.5,22.5c-2.761,0-5,2.239-5,5c0,0.446,0.077,0.87,0.187,1.282C23.045,28.005,22.086,27.5,21,27.5 c-1.781,0-3.234,1.335-3.455,3.055C17.364,30.533,17.187,30.5,17,30.5c-2.485,0-4.5,2.015-4.5,4.5s2.015,4.5,4.5,4.5s9.5,0,9.5,0 h5.375V40h3V39.5z"/><path fill="#472b29" d="M28.5,22c-3.033,0-5.5,2.467-5.5,5.5c0,0.016,0,0.031,0,0.047C22.398,27.192,21.71,27,21,27 c-1.831,0-3.411,1.261-3.858,3.005C17.095,30.002,17.048,30,17,30c-2.757,0-5,2.243-5,5s2.243,5,5,5h14.875 c0.276,0,0.5-0.224,0.5-0.5s-0.224-0.5-0.5-0.5H17c-2.206,0-4-1.794-4-4s1.794-4,4-4c0.117,0,0.23,0.017,0.343,0.032l0.141,0.019 c0.021,0.003,0.041,0.004,0.062,0.004c0.246,0,0.462-0.185,0.495-0.437C18.232,29.125,19.504,28,21,28 c0.885,0,1.723,0.401,2.301,1.1c0.098,0.118,0.241,0.182,0.386,0.182c0.078,0,0.156-0.018,0.228-0.056 c0.209-0.107,0.314-0.346,0.254-0.573C24.054,28.218,24,27.852,24,27.5c0-2.481,2.019-4.5,4.5-4.5 c2.381,0,4.347,1.872,4.474,4.263c0.011,0.208,0.15,0.387,0.349,0.45c0.05,0.016,0.101,0.024,0.152,0.024 c0.15,0,0.296-0.069,0.392-0.192C34.638,26.563,35.779,26,37,26c2.206,0,4,1.794,4,4c0,0.117-0.017,0.23-0.032,0.343l-0.019,0.141 c-0.016,0.134,0.022,0.268,0.106,0.373c0.084,0.105,0.207,0.172,0.34,0.185C43.451,31.247,45,32.949,45,35c0,2.206-1.794,4-4,4 h-6.125c-0.276,0-0.5,0.224-0.5,0.5s0.224,0.5,0.5,0.5H41c2.757,0,5-2.243,5-5c0-2.397-1.689-4.413-4.003-4.877 C41.999,30.082,42,30.041,42,30c0-2.757-2.243-5-5-5c-1.176,0-2.293,0.416-3.183,1.164C33.219,23.76,31.055,22,28.5,22L28.5,22z"/><path fill="#472b29" d="M27,29c-1.403,0-2.609,0.999-2.913,2.341C23.72,31.119,23.301,31,22.875,31 c-1.202,0-2.198,0.897-2.353,2.068C20.319,33.022,20.126,33,19.937,33c-1.529,0-2.811,1.2-2.918,2.732 C17.01,35.87,17.114,35.99,17.251,36c0.006,0,0.012,0,0.018,0c0.13,0,0.24-0.101,0.249-0.232c0.089-1.271,1.151-2.268,2.419-2.268 c0.229,0,0.47,0.042,0.738,0.127c0.022,0.007,0.045,0.01,0.067,0.01c0.055,0,0.11-0.02,0.156-0.054 C20.962,33.537,21,33.455,21,33.375c0-1.034,0.841-1.875,1.875-1.875c0.447,0,0.885,0.168,1.231,0.473 c0.047,0.041,0.106,0.063,0.165,0.063c0.032,0,0.063-0.006,0.093-0.019c0.088-0.035,0.148-0.117,0.155-0.212 C24.623,30.512,25.712,29.5,27,29.5c0.208,0,0.425,0.034,0.682,0.107c0.023,0.007,0.047,0.01,0.07,0.01 c0.109,0,0.207-0.073,0.239-0.182c0.038-0.133-0.039-0.271-0.172-0.309C27.517,29.04,27.256,29,27,29L27,29z"/><path fill="#fff" d="M70.405,22H60.5c-0.276,0-0.5-0.224-0.5-0.5s0.224-0.5,0.5-0.5h9.905c0.276,0,0.5,0.224,0.5,0.5 S70.682,22,70.405,22z"/><path fill="#fff" d="M73.5,22h-1c-0.276,0-0.5-0.224-0.5-0.5s0.224-0.5,0.5-0.5h1c0.276,0,0.5,0.224,0.5,0.5 S73.777,22,73.5,22z"/><path fill="#fff" d="M78.491,24H69.5c-0.276,0-0.5-0.224-0.5-0.5s0.224-0.5,0.5-0.5h8.991c0.276,0,0.5,0.224,0.5,0.5 S78.767,24,78.491,24z"/><path fill="#fff" d="M67.5,24h-1c-0.276,0-0.5-0.224-0.5-0.5s0.224-0.5,0.5-0.5h1c0.276,0,0.5,0.224,0.5,0.5 S67.777,24,67.5,24z"/><path fill="#fff" d="M64.5,24h-2c-0.276,0-0.5-0.224-0.5-0.5s0.224-0.5,0.5-0.5h2c0.276,0,0.5,0.224,0.5,0.5 S64.777,24,64.5,24z"/><path fill="#fff" d="M70.5,26h-2c-0.276,0-0.5-0.224-0.5-0.5s0.224-0.5,0.5-0.5h2c0.276,0,0.5,0.224,0.5,0.5 S70.776,26,70.5,26z"/><path fill="#fff" d="M73.5,17c-0.177,0-0.823,0-1,0c-0.276,0-0.5,0.224-0.5,0.5c0,0.276,0.224,0.5,0.5,0.5 c0.177,0,0.823,0,1,0c0.276,0,0.5-0.224,0.5-0.5C74,17.224,73.776,17,73.5,17z"/><path fill="#fff" d="M73.5,19c-0.177,0-4.823,0-5,0c-0.276,0-0.5,0.224-0.5,0.5c0,0.276,0.224,0.5,0.5,0.5 c0.177,0,4.823,0,5,0c0.276,0,0.5-0.224,0.5-0.5C74,19.224,73.776,19,73.5,19z"/><path fill="#fff" d="M78.5,21c-0.177,0-2.823,0-3,0c-0.276,0-0.5,0.224-0.5,0.5c0,0.276,0.224,0.5,0.5,0.5 c0.177,0,2.823,0,3,0c0.276,0,0.5-0.224,0.5-0.5C79,21.224,78.776,21,78.5,21z"/><g><path fill="#fff" d="M14.5,53h-10C4.224,53,4,52.776,4,52.5S4.224,52,4.5,52h10c0.276,0,0.5,0.224,0.5,0.5 S14.776,53,14.5,53z"/><path fill="#fff" d="M18.5,53h-2c-0.276,0-0.5-0.224-0.5-0.5s0.224-0.5,0.5-0.5h2c0.276,0,0.5,0.224,0.5,0.5 S18.776,53,18.5,53z"/><path fill="#fff" d="M23.5,55h-10c-0.276,0-0.5-0.224-0.5-0.5s0.224-0.5,0.5-0.5h10c0.276,0,0.5,0.224,0.5,0.5 S23.777,55,23.5,55z"/><path fill="#fff" d="M11.5,55h-1c-0.276,0-0.5-0.224-0.5-0.5s0.224-0.5,0.5-0.5h1c0.276,0,0.5,0.224,0.5,0.5 S11.776,55,11.5,55z"/><path fill="#fff" d="M8.47,55H6.5C6.224,55,6,54.776,6,54.5S6.224,54,6.5,54h1.97c0.276,0,0.5,0.224,0.5,0.5 S8.746,55,8.47,55z"/><path fill="#fff" d="M17.5,51h-5c-0.276,0-0.5-0.224-0.5-0.5s0.224-0.5,0.5-0.5h5c0.276,0,0.5,0.224,0.5,0.5 S17.777,51,17.5,51z"/><path fill="#fff" d="M14.5,57h-2c-0.276,0-0.5-0.224-0.5-0.5s0.224-0.5,0.5-0.5h2c0.276,0,0.5,0.224,0.5,0.5 S14.776,57,14.5,57z"/></g><g><path fill="#ef9922" d="M68.625,75h-31.25C33.854,75,31,72.146,31,68.625v-31.25C31,33.854,33.854,31,37.375,31h31.25 C72.146,31,75,33.854,75,37.375v31.25C75,72.146,72.146,75,68.625,75z"/></g><g><path fill="#472b29" d="M58.5,34.5h-11c-0.276,0-0.5-0.224-0.5-0.5s0.224-0.5,0.5-0.5h11c0.276,0,0.5,0.224,0.5,0.5 S58.776,34.5,58.5,34.5z"/></g><g><path fill="#472b29" d="M34,44.262c-0.276,0-0.5-0.224-0.5-0.5v-6.27c0-2.201,1.942-3.992,4.33-3.992h4.735 c0.276,0,0.5,0.224,0.5,0.5s-0.224,0.5-0.5,0.5H37.83c-1.836,0-3.33,1.342-3.33,2.992v6.27C34.5,44.038,34.276,44.262,34,44.262z"/></g><g><path fill="#472b29" d="M72,55c-0.276,0-0.5-0.224-0.5-0.5V37.492c0-1.65-1.171-2.992-2.611-2.992h-3.312 c-0.276,0-0.5-0.224-0.5-0.5s0.224-0.5,0.5-0.5h3.312c1.991,0,3.611,1.791,3.611,3.992V54.5C72.5,54.776,72.276,55,72,55z"/></g><g><path fill="#472b29" d="M68.224,72.5H37.776c-2.358,0-4.276-1.791-4.276-3.992V51.5c0-0.276,0.224-0.5,0.5-0.5 s0.5,0.224,0.5,0.5v17.008c0,1.65,1.47,2.992,3.276,2.992h30.448c1.806,0,3.276-1.342,3.276-2.992v-6.27c0-0.276,0.224-0.5,0.5-0.5 s0.5,0.224,0.5,0.5v6.27C72.5,70.709,70.582,72.5,68.224,72.5z"/></g><g><path fill="#472b29" d="M68.625,75.7h-31.25c-3.901,0-7.075-3.174-7.075-7.075v-31.25c0-3.901,3.174-7.075,7.075-7.075 h31.25c3.901,0,7.075,3.174,7.075,7.075v31.25C75.7,72.526,72.526,75.7,68.625,75.7z M37.375,31.7 c-3.129,0-5.675,2.546-5.675,5.675v31.25c0,3.129,2.545,5.675,5.675,5.675h31.25c3.129,0,5.675-2.546,5.675-5.675v-31.25 c0-3.129-2.545-5.675-5.675-5.675H37.375z"/></g><g><path fill="#fdfcef" d="M86.5,49.5c0,0,1.567,0,3.5,0s3.5-1.567,3.5-3.5c0-1.781-1.335-3.234-3.055-3.455 C90.473,42.366,90.5,42.187,90.5,42c0-1.933-1.567-3.5-3.5-3.5c-1.032,0-1.95,0.455-2.59,1.165 c-0.384-1.808-1.987-3.165-3.91-3.165c-2.209,0-4,1.791-4,4c0,0.191,0.03,0.374,0.056,0.558C76.128,40.714,75.592,40.5,75,40.5 c-1.228,0-2.245,0.887-2.455,2.055C72.366,42.527,72.187,42.5,72,42.5c-1.933,0-3.5,1.567-3.5,3.5s1.567,3.5,3.5,3.5s7.5,0,7.5,0 V50h7V49.5z"/><path fill="#472b29" d="M88.25,45C88.112,45,88,44.888,88,44.75c0-1.223,0.995-2.218,2.218-2.218 c0.034,0.009,0.737-0.001,1.244,0.136c0.133,0.036,0.212,0.173,0.176,0.306c-0.036,0.134-0.173,0.213-0.306,0.176 c-0.444-0.12-1.1-0.12-1.113-0.118c-0.948,0-1.719,0.771-1.719,1.718C88.5,44.888,88.388,45,88.25,45z"/><circle cx="81.5" cy="49.5" r=".5" fill="#472b29"/><path fill="#472b29" d="M90,50h-3.5c-0.276,0-0.5-0.224-0.5-0.5s0.224-0.5,0.5-0.5H90c1.654,0,3-1.346,3-3 c0-1.496-1.125-2.768-2.618-2.959c-0.134-0.018-0.255-0.088-0.336-0.196s-0.115-0.244-0.094-0.377C89.975,42.314,90,42.16,90,42 c0-1.654-1.346-3-3-3c-0.85,0-1.638,0.355-2.219,1c-0.125,0.139-0.321,0.198-0.5,0.148c-0.182-0.049-0.321-0.195-0.36-0.379 C83.58,38.165,82.141,37,80.5,37c-1.93,0-3.5,1.57-3.5,3.5c0,0.143,0.021,0.28,0.041,0.418c0.029,0.203-0.063,0.438-0.242,0.54 c-0.179,0.102-0.396,0.118-0.556-0.01C75.878,41.155,75.449,41,75,41c-0.966,0-1.792,0.691-1.963,1.644 c-0.048,0.267-0.296,0.446-0.569,0.405C72.314,43.025,72.16,43,72,43c-1.654,0-3,1.346-3,3s1.346,3,3,3h7.5 c0.276,0,0.5,0.224,0.5,0.5S79.776,50,79.5,50H72c-2.206,0-4-1.794-4-4s1.794-4,4-4c0.059,0,0.116,0.002,0.174,0.006 C72.588,40.82,73.711,40,75,40c0.349,0,0.689,0.061,1.011,0.18C76.176,37.847,78.126,36,80.5,36c1.831,0,3.466,1.127,4.153,2.774 C85.333,38.276,86.155,38,87,38c2.206,0,4,1.794,4,4c0,0.048-0.001,0.095-0.004,0.142C92.739,42.59,94,44.169,94,46 C94,48.206,92.206,50,90,50z"/><path fill="#472b29" d="M84.5,49c-0.159,0-0.841,0-1,0c-0.276,0-0.5,0.224-0.5,0.5c0,0.276,0.224,0.5,0.5,0.5 c0.159,0,0.841,0,1,0c0.276,0,0.5-0.224,0.5-0.5C85,49.224,84.776,49,84.5,49z"/></g><g><path fill="#fff" d="M40.533,43.522c2.027,3.417,7.587,10.714,13.841,15.173c-2.49,1.39-8.108,4.054-17.374-1.39 c2.896,5.618,11.004,9.015,16.505,9.015c4.459,0.058,6.892-1.911,7.355-2.201c0.463-0.29,4.865-1.139,7.413,2.568 c0.116-1.795,1.448-3.706-2.664-8.455c0.811-5.56,0.579-13.957-9.266-19.633c3.706,3.591,4.228,12.22,3.127,14.826 c-1.853-1.216-13.204-10.251-15.521-12.162c0.985,2.374,5.733,8.34,8.398,10.888L40.533,43.522z"/><path fill="#472b29" d="M68.273,66.938c-0.081,0-0.159-0.039-0.206-0.108c-2.483-3.611-6.771-2.687-7.075-2.497 c-0.038,0.024-0.091,0.06-0.158,0.106c-0.788,0.541-3.175,2.188-7.333,2.133c-5.773,0-13.811-3.499-16.724-9.151 c-0.051-0.099-0.03-0.22,0.05-0.296c0.082-0.076,0.203-0.09,0.298-0.034c9.027,5.304,14.614,2.756,16.782,1.577 c-6.018-4.401-11.509-11.508-13.59-15.018c-0.061-0.102-0.041-0.233,0.047-0.313c0.088-0.08,0.22-0.087,0.315-0.017l9.563,6.985 c-2.617-2.935-5.749-7.074-6.525-8.946c-0.044-0.106-0.01-0.228,0.082-0.297c0.093-0.068,0.219-0.065,0.308,0.008 c2.31,1.905,12.795,10.248,15.238,11.967c0.867-2.722,0.394-10.799-3.177-14.259c-0.091-0.088-0.102-0.229-0.026-0.33 c0.076-0.101,0.214-0.129,0.325-0.066c7.596,4.379,10.673,10.848,9.405,19.772c3.421,3.986,3.063,6.017,2.776,7.651 c-0.055,0.314-0.107,0.61-0.126,0.897c-0.007,0.106-0.081,0.197-0.183,0.225C68.318,66.935,68.295,66.938,68.273,66.938z M37.671,57.974c3.073,4.876,10.464,8.096,15.834,8.096c4.006,0.055,6.292-1.526,7.047-2.045c0.074-0.051,0.133-0.091,0.176-0.118 c0.587-0.367,4.729-1.082,7.373,2.134c0.017-0.106,0.036-0.214,0.055-0.323c0.271-1.542,0.609-3.46-2.736-7.324 c-0.047-0.055-0.069-0.128-0.059-0.2c1.199-8.217-1.36-14.305-7.819-18.564c2.945,4.2,3.129,11.589,2.158,13.89 c-0.029,0.068-0.087,0.12-0.158,0.142c-0.071,0.022-0.148,0.01-0.21-0.03c-1.656-1.086-11.049-8.535-14.618-11.424 c1.587,2.727,5.468,7.526,7.805,9.76c0.095,0.091,0.104,0.24,0.019,0.341c-0.085,0.101-0.233,0.119-0.339,0.041l-10.767-7.864 c2.473,3.78,7.581,10.077,13.086,14.003c0.07,0.05,0.109,0.132,0.104,0.217c-0.004,0.086-0.053,0.163-0.127,0.205 C52.614,59.964,46.995,63.101,37.671,57.974z"/></g></svg>